<svg width="24" height="22" viewBox="0 0 24 22" fill="none" xmlns="http://www.w3.org/2000/svg">
<path d="M2.36546 18.6475C3.76546 20.3333 6.36946 20.3333 11.5798 20.3333H12.4198C17.6301 20.3333 20.2353 20.3333 21.6353 18.6475M2.36546 18.6475C0.965458 16.9605 1.44612 14.4008 2.40629 9.27917C3.08879 5.63917 3.42946 3.818 4.72562 2.74233M21.6353 18.6475C23.0353 16.9605 22.5546 14.4008 21.5945 9.27917C20.912 5.63917 20.5701 3.818 19.274 2.74233M19.274 2.74233C17.979 1.66667 16.1251 1.66667 12.421 1.66667H11.5786C7.87446 1.66667 6.02179 1.66667 4.72562 2.74233" stroke="black" stroke-width="1.5"/>
<path d="M8.69824 6.33333C8.93928 7.01645 9.38627 7.60799 9.97761 8.02641C10.5689 8.44483 11.2755 8.66952 11.9999 8.66952C12.7243 8.66952 13.4309 8.44483 14.0222 8.02641C14.6135 7.60799 15.0605 7.01645 15.3016 6.33333" stroke="black" stroke-width="1.5" stroke-linecap="round"/>
</svg>
